<svg xmlns="http://www.w3.org/2000/svg" id="_&#x421;&#x43B;&#x43E;&#x439;_2" data-name="&#x421;&#x43B;&#x43E;&#x439; 2" viewBox="0 0 284.05 35.03"><defs><style>      .cls-1 {        fill: #eeecdd;        fill-rule: evenodd;      }    </style></defs><g id="_&#x421;&#x43B;&#x43E;&#x439;_1-2" data-name="&#x421;&#x43B;&#x43E;&#x439; 1"><path class="cls-1" d="m27.24,19.44L7.77,14.59c-4.61-1.15-6.66-3.18-6.66-6.57C1.11,6.24,1.11.81,16.67.81c8.01,0,16.3,1.43,17.04,12.02v.19h.86V0H6.93C3.3,0,1.64.94.8,3.45c-.5,1.5-.8,3.18-.8,4.47,0,4.6,3.02,6.39,7.57,7.67l19.47,4.85c4.73,1.17,6.66,3.11,6.66,6.67,0,2.65-2.02,7.11-15.56,7.11-8.01,0-16.31-1.43-17.04-12.02v-.19H.25v13.03h27.64c3.63,0,5.29-.94,6.13-3.45.5-1.51.8-3.18.8-4.47,0-4.11-2.19-6.34-7.57-7.67Z"></path><path class="cls-1" d="m64.38,15.05c-.83,1.36-2.63,2.11-5.07,2.11s-4.24-.75-5.07-2.11c-.77-1.27-.66-2.99.31-4.86l2.92-5.69c.5-1.06,1.05-1.51,1.84-1.51s1.37.51,1.84,1.51l2.92,5.69c.97,1.87,1.08,3.59.31,4.86h0Zm12.35,19.98h1.21L60.4.77c7.93.13,12.47,1.16,16.65,3.77l.32.2V0h-36.1v4.74l.32-.2c4.72-3,9.52-3.66,16.65-3.77l-17.54,34.26h1.21l4.65-9.06c3.44-6.62,7.24-7.95,12.27-7.95h.99c5.03,0,8.83,1.33,12.27,7.95l4.6,8.95.06.11Z"></path><path class="cls-1" d="m97.62,21.36l-12.89.19.14-9.53c0-9.47,4.94-11.07,16-11.07s16.15,3.59,16.15,10.67-4.9,9.73-19.41,9.73h0Zm19.43-16.21c-.79-3.52-1.57-4.25-4.88-4.56h0c-1.5-.14-6.75-.59-11.29-.59h-17.36v35.03h.96l.2-12.56h12.94c7.3,0,11.94-.2,13.86-.4,3.75-.44,4.71-.75,5.46-2.86.35-1,1-4.24,1-7.59,0-1.76-.29-3.89-.86-6.32l-.04-.16Z"></path><path class="cls-1" d="m124.39.86h.21c2.25-.05,4.25.11,6.01.25l.49.04c6.89.53,9.7.98,10.29,6.98.16,1.79.25,4.95.25,9.37s-.08,7.58-.25,9.38c-.58,6-3.4,6.45-10.29,6.98l-.48.04c-1.77.14-3.77.3-6.03.26h-.21s0,.86,0,.86h35.51v-.87h-.21c-2.3.05-4.31-.11-6.08-.25l-.47-.04c-6.88-.53-9.7-.98-10.29-6.98-.16-1.8-.25-4.95-.25-9.38s.08-7.58.25-9.37c.59-6,3.4-6.45,10.29-6.98l.49-.04c1.77-.14,3.77-.3,6.07-.26h.21s0-.86,0-.86h-35.51v.86Z"></path><path class="cls-1" d="m201.02,22h-.9v.19c-.12,1.53-.29,2.84-.41,3.69-.85,5.8-2.86,7.44-9.74,7.98l-.45.04c-1.73.14-3.69.3-5.91.26-2.93,0-5.74-.18-8.37-.54-5.79-.86-7.43-2.86-7.98-9.75-.14-1.61-.29-3.52-.29-5.61h3.3c2.92,0,5.74.18,8.37.54,5.79.86,7.43,2.86,7.98,9.74.02.37.05.75.09,1.15.04.5.08,1.02.11,1.57v.2h.86V4.2h-.85v.2c-.04.55-.08,1.07-.12,1.57-.03.39-.06.77-.09,1.14-.55,6.89-2.19,8.89-7.98,9.75-2.63.36-5.45.54-8.37.54h-3.3c-.04-2.16.12-4.08.26-5.77l.04-.48c.55-6.89,2.19-8.89,7.98-9.75,2.64-.36,5.45-.54,8.38-.54,2.21-.04,4.16.12,5.89.26l.47.04c6.89.55,8.89,2.19,9.74,7.98.18,1.29.31,2.55.39,3.75v.19h.91V0h-34.92v35.03h34.92v-13.03Z"></path><path class="cls-1" d="m241.53.2c-.07,2.7-.08,5.43-.1,8.07-.02,3.17-.04,6.45-.15,9.68-.04.97-.06,1.95-.09,2.93-.03,1.44-.07,2.93-.16,4.38-.12,1.72-.84,2.99-1.93,3.4-1.06.4-2.33-.04-3.5-1.21L208.47.06l-.06-.06h-.94v35.03h.95v-.2c.07-2.7.09-5.44.11-8.08.02-3.16.04-6.44.15-9.66.04-.98.06-1.96.09-2.94.03-1.44.07-2.92.16-4.37.11-1.72.85-3,1.95-3.41,1.06-.39,2.33.05,3.47,1.22l27.13,27.39.06.06h.94V0h-.95v.2Z"></path><path class="cls-1" d="m276.48,19.44h0l-19.47-4.84c-4.61-1.15-6.66-3.18-6.66-6.57,0-1.78,0-7.21,15.56-7.21,8.01,0,16.31,1.43,17.04,12.02v.19h.86V0h-27.64c-3.63,0-5.29.94-6.13,3.45-.5,1.51-.8,3.18-.8,4.47,0,4.6,3.03,6.39,7.57,7.67l19.47,4.85c4.73,1.17,6.66,3.11,6.66,6.67,0,2.65-2.02,7.11-15.56,7.11-5.41,0-9.17-.75-11.85-2.35-3.17-1.9-4.87-5.06-5.19-9.67v-.19h-.86v13.03h27.64c3.63,0,5.29-.94,6.13-3.45.5-1.51.8-3.18.8-4.47,0-4.11-2.19-6.34-7.57-7.67Z"></path></g></svg>