<svg xmlns="http://www.w3.org/2000/svg" id="_&#x421;&#x43B;&#x43E;&#x439;_2" data-name="&#x421;&#x43B;&#x43E;&#x439; 2" viewBox="0 0 284.05 170.02"><defs><style>      .cls-1 {        fill: #eeecdd;        fill-rule: evenodd;      }    </style></defs><g id="_&#x421;&#x43B;&#x43E;&#x439;_1-2" data-name="&#x421;&#x43B;&#x43E;&#x439; 1"><path class="cls-1" d="m143.09,37.13c.02-1.93-.18-3.63-.34-5.56-.03-.31-.17-.82-.24-1.21-.83-4.32-1.66-8.68-2.2-13.06-.11-.3-.35-.71-.56-.91-.6-.58-1.25-1.02-1.94-1.38-.34-.18-1.01-.49-1.31-.39-5.69,2.35-10.91,4.93-16.77,6.86-.06.02-.12.03-.18.05,0,0-.01,0-.02.01-.39.15-2.02.42-2.33.52-2.49.78-4.77,1.37-7.16,2.26-.3.11-.62.28-.94.4-.32.12-.65.2-.99.29-1.68.46-3.36.83-5.09,1.19-1.57.49-3.64,1.48-4.83,2.4-1.19.92-1.8,1.99-2.1,3.12-.54,2.04,0,2.9-.17,5.06-.03.46-.09,1-.14,1.59.4.43.99.93,1.39,1.12.25.12.6.33.88.47.28.14.63.32.92.47,4.59,2.34,7.64,2.55,11.55,5.03,1.74.54,2.75,1.49,3.34,1.76.1.04,1.93.87,2.11.97.18.1,3.83,2.23,3.95,2.25,2.45.34,9.12-4.55,10.46-5.51.44-.32,1.79-1.13-.49-1.43-.59-.08-.89-.34-1.4-.65-.06-.03-.44-.53-.46-.58-.08-.23-.23-.47-.21-.72.08-.93-.07-.98.2-1.86.05-.15.7-1.05.84-1.09.98-.26,1.99-.1,2.87.5.88.6.79,1.54.98,2.48.03.14.02.32.07.46.05.14.09.28.15.42.06.14.09.28.18.43.22.4.5.76.8,1.12.05.06.12.1.21.12,2.49.77,4.86,1.53,7.32,2.57.1.04,2.39.94,5.24,1.9-.65-1.25-1.67-2.74-3.14-4.88-.19-.27-.7-1.3-.85-2.23-.09-.59-.07-1.49.02-2.1.08-.62.36-1.61.37-2.25Z"></path><path class="cls-1" d="m144.99,28.89c.95,6.08,3.1,6.89,6.27,11.63.23.34.55.68.8,1.02,3.21,3.01,5.02,4.72,7.07,8.8,1.18-.27,2.37-.55,3.36-.53,2.73.05,4.26-.09,5.96-.55.04-.01.08-.03.11-.05,2.63-1.82,4.21-4.41,6.46-6.98.16-.18.3-.38.45-.55.15-.18.3-.34.45-.51.93-1.01,1.85-1.98,2.81-2.97.13-.19.29-.42.46-.66-.03-.38-.04-.77,0-1.17.03-.34.1-.73.16-1.08.07-.34.1-.74.2-1.06.1-.32.22-.56.37-.84,1.8-3.36,3-6.2,2.32-10.05-2.91-2.4-5.45-2.86-8.52-2.84-.23.04-.41.06-.47.07-.62.06-1.21.03-1.81.01-.63.03-1.28.07-1.97.1-.04,0-.11,0-.18-.02-.04,0-.07,0-.11.02-.42.07-.95,0-1.36-.1-1.28-.3-2.5-.63-3.76-.96-.23-.07-.47-.14-.7-.21-.44-.14-.78-.24-1.2-.38-.32-.11-.68-.26-1.01-.39-1.34-.53-2.7-1.07-4.06-1.57-.34-.12-.67-.23-1.01-.34-1.06-.34-2.12-.68-3.2-.95-.24-.06-.5-.08-.75-.1-.37-.03-.73-.12-1.11-.09-.36.03-.68.09-1.05.21-1.1.39-2.8,1.55-3.78,2.18-.39.72-.46.94-.71,1.78-.76,2.54-.59,4.83-.53,7.51.01.51-.03,1.17.05,1.63Z"></path><path class="cls-1" d="m145.88,3.21c.22,2.67-.54,4.73.14,6.16,1.81,3.81,4.67,3.51,10.45,5.78.37.14,3.08,1.3,3.79,1.83.29.22,1.79.98,2.08,1.18.56.39,1.12.64,1.68.83.14.03.29.05.45.08.63.09.99.2,1.57.26.58.06,1.09.24,1.48.26.39.01,1.55-.02,1.96-.06,5.57-.49,10.46-1.06,16.05-.75.27-.63.4-.95-.2-2.2-.12-.25-.93-.86-.67-2.07.21-1.03.16-1.69,1.18-2.61,1.02-.92,2.49-.81,3.04.37.55,1.18,1.21,2.39.53,3.56-.12.29-1.33,1.71-1.45,2.31-.56,2.75,1.13,4.03,1.38,6.8,0,.05,0,.21-.06.45-.14.51.07,1.57-.1,1.97-.63,1.5-1.61,2.77-2.3,4.24-.14.31-.31.55-.47.87-.48.96-.92,1.73-1.4,2.78-.4.86-1.01,1.73-1.3,2.79-.28,1.06-.45,2.41-.02,3.52.87,2.24,2.64,3.07,3.85,5.38,1.15,2.2,5.1,6.88,7.11,7.66,3,1.16,5.11,0,7.23-.03,1.62-.03,3.95-.31,6.14-.6,0,0,0,0,0-.01,3.92-5.23,7.57-12.42,3.95-18.92-.82-1.47-1.61-7.72-3.2-9.5-4.6-5.14-7.04-11.49-12.49-15.87-.3-.24-.65-.41-1.03-.49-1.91-.45-5.93-1.61-6.77-1.66-7.5-.47-11.67.53-18.84-.9-8.32-1.67-10.59-1.08-21.6-3.58-.76-.17-1.71-.34-2.78-.49.24.19.5.5.61.7Z"></path><path class="cls-1" d="m76.83,55.01c.17,1.66,2,5.77,2.36,7.25,1.03,4.1,2.09,5.59,3.46,6.9,1.37-.58,2.74-1.11,3.8-1.56,1.29-.55,2.3-1.97,2.57-2.6,1.74-4.09.95-8.27,1.7-12.09.75-3.82,1.41-6.49,1.81-10,.17-1.5-.34-2.83-.62-4.08-.29-1.25-1.59-1.89-1.69-2.95-.1-1.18.22-2.55.3-3.64-.49-2.34-.81-4.64-.93-7.08-.06-1.28.46-2.05,1.32-2.93.86-.88,2.19-.74,3.34-.91,1.04-1.22,1.92-2.88,2.2-4.39.29-1.51-.66-1.52-.63-2.79.04-1.5.83-4.29,2.38-3.79,1.55.5,1.66,2.06,1.75,3.59.06,1.08-.21,2.44-.56,3.54-.18.57-.52,1.24-.68,1.82-.12.43.25.74.59.82,2.01.48,3.97.71,6.01.9.34.03.67.04,1.04.06.37.02.79.05,1.18.06.39.01.78.05,1.19.04,2.68-.05,5.37-.09,8.05-.27.38-.03.79-.07,1.16-.12.32-.04.64-.07.95-.11.1-.03.2-.06.3-.09,5.89-3,11.13-6.35,16.74-9.8.25-.16.7-.38,1.02-.51.64-.26.81-.27,1.67-.34,1.72-.15,4.33,1.26,4.25-1.61-.02-.67-1.57-3.75-1.51-4.62.02-.29.41-1.05.75-1.58-8.56-.87-21.55-1.31-27.67-2.07-10.18-1.26-34.43,14.98-38.03,19.9-4.94,6.76-2.65,18.87-2.13,20.82,2.25,8.55,1.87,7.59,2.54,14.22Z"></path><path class="cls-1" d="m150.18,49.69c1.94.56,3.85,1.02,5.29,1.16.34.03.7.02,1.08-.02-1.34-4.22-4.6-7.1-8.58-9.84-.2-.14-.47-.25-.72-.32-.25-.06-.38.2-.3.43,0,.02.02.04.03.06,1.79,2.54,2.72,5.8,3.19,8.52Z"></path><path class="cls-1" d="m202.25,60.6c.85-.94,2.48-2.59,4.25-4.73-2.35.45-4.71.9-6.08,1.32-1.49.47-3.14,2.32-4.74,1.84-3.06-.91-4.43-2.6-6.98-4.67-1.44-1.16-3.18-3.97-4.97-5.05-1.21-.73-2.2-1.01-3.17.09-2.17,2.45-3.78,5.82-3.61,8.97.13,2.46,1.42,2.58,3.13,3.62,1.37.83,4.54,3.11,5.47,3.6,4.45,2.34,6.51,5.64,7.63,9.09,2.2-4.18,4.57-9.09,9.08-14.09Z"></path><path class="cls-1" d="m138.76,63.13c-.32.85-.65,1.73-.82,2.3-.18.58-.16.75-.24,1.14-.08.38-.27,1.19-.32,1.36-.6,2.03-1.04,3.9-1.65,5.78-.26.79-.63,1.38-1.03,2.03-.4.64-.94,1.19-1.27,1.8-.27.5-.5,1.11-.57,1.56-.17,1.18-1.33,3.62-.72,4.6.48.78,3.36,2.28,3.74,3.36.48,1.34,1.28,3.01,1.6,3.8,1.83-.13,3.45-.31,4.72-.57,12.93-2.6,23.21-3.08,35.23-3.99,7.78-.58,11.16-3.82,13.98-8.45.01-.03.03-.06.04-.09-.39-1.32-.7-2.57-.96-2.99-.73-1.2-.68-1.98-1.81-2.9-6.05-4.93-15.37-7.54-17.1-12.4-.32-.89,7.04-17.28,7.55-18.91,0,0,0,0,0,0-.69.57-1.68,1.4-2.26,2.01-.12.12-.37.36-.52.52-.14.16-.31.33-.47.5-3.1,3.21-4.99,5.7-9.41,6.77.16-.07-4.52,1.23-6.63,1.62.12.26.3.52.43.8.1.23.32.69.13,1.02-.76,1.31-2.26,2.92-3,4.29-.35.64-.66,1.34-1.1,2.03-1.08,1.69-4.44,3.75-6.42,4.37,0-.51,4.29-4.43,5.31-6.28.34-.62.68-1.31,1-1.92.21-.41.46-.57.71-.94.27-.41.32-.47.31-.7-.03-.77-.11-1.5-.24-2.19-.5.08-.84.13-.96.15-1.34.26-3.28-.75-5.62-1.6.24,1.81.29,3.23.29,3.79,0,2.25-1.05,3.25-1.81,4.8-.18.36-1.15,1.7-1.29,1.92-1.44,2.25-2.64,3.76-4.01,6.01-1.99,3.26-1.78,5.68-2.36,5.8-.65-1.8.04-6.03,1.27-8.2.66-1.17,2.6-4.5,3.15-5.62,1.62-5.09,2.37-7.1,1.71-9.36-.1-.02-.19-.04-.29-.05-4.35-.69-4.84-1.11-7.91-1.8-.35-.08-.29.2-.42.23-.48.11-.51,1.2-.49,1.31.49,2.88,1.19,5.27,1.73,8.1.2,1.02-.19,2.35-.53,3.37-.15.44-.6,1.59-.68,1.82Z"></path><path class="cls-1" d="m119.32,87.71c-.66-1.25-1.32-2.34-1.9-3.72-.13-.31-.26-.59-.31-1.18-.16-1.83-.33-4.19-.26-6.09.03-.76.03-1.27.62-1.68,1.38-.97,2.7-1.15,4.33-1.76,1.8-.67,3.94-1.53,5.76-2.33.21-.09.4-.17.57-.27.49-.3,1.02-.56,1.47-.87.85-.59,1.69-1.27,2.47-1.9.55-.44,1.06-.85,1.49-1.34.43-.5.66-.97,1-1.51.48-.78.9-1.56,1.44-2.36.22-.32.86-1.62.86-1.87.09-3.04-.26-5.27-2.07-7.72-.88-1.19-2.95-1.43-4.29-2.11-.13-.07-.41-.17-.59-.2-.59-.11-1.26-.29-1.85-.3-.59,0-1.08.09-1.63.14-.14.01-.28.06-.4.08-.87.14-1.78.43-2.57.7-1.36.45-1.85,1.07-2.91.85-.12-.03-1.6-.78-1.74-.85-.68-.35-6.35-4.15-8.55-5.48-3.72-1.74-7.56-2.42-12.37-4.19-.23-.09-.54-.27-.74-.36-.2-.09-.51-.27-.64-.34-.27-.15-.56-.35-.86-.57-.02.81,0,1.6.13,2.28.06.32.21.64.33.93.12.28.28.55.43.81,2.45,4.36,4.23,8.92,5.48,13.74.1.39.16.79.08,1.17-.8,4.23-3.32,6.87-5.43,10.61-.43.76-1.07,2.53-1.54,3.34-.17.3-.33.5-.59.41-.61-.21-.82-.69-.65-1.24.72-2.39,1.93-4.18,3.17-6.26.25-.42,1.6-2,1.8-2.22.42-.48.61-1.02.68-1.36.22-1.14.35-1.6.5-2.64.05-.35,0-.95.01-1.38.02-2.7-1.01-4.74-3.58-5.68-.36-.13-.5-.2-.74.02-1.19,1.14-.76,1.74-1.28,3.5-.76,2.57-1.29,5.56-3.03,8.19-.91,1.38-2.79,3.75-4.26,4.82-.81.59-1.66,1.08-2.52,1.53,0,0,0,0,.01,0,.92.88,1.94,2.02,3.14,3.82,7.61,11.38,9.68,19.07,26.92,16.84,1.82-.23,4.47-.34,7.47-.4-.82-.96-1.62-1.93-2.42-2.92-.16-.2-.31-.41-.44-.67Z"></path><path class="cls-1" d="m133.37,90.12c-.21-.35-.41-.71-.63-1.09-.27-.49-.55-.97-.83-1.45-.25-.42-.46-.88-.77-1.26-.56-.67-1.37-1.21-1.72-2.03-.14-.32-.12-4.71,1.05-7.32.46-1.02.73-2.18.72-3.4-.02-1.8-3.1-.12-3.36,0-3.44,1.66-6.1,3.23-9,5.23-.21.14-.19.42-.18.46.25,1.93.64,3.67,1.08,5.51.06.23.14.43.28.63,1.38,1.93,2.77,3.87,4.16,5.81h.03s9.65-.26,9.65-.26c-.16-.23-.42-.75-.48-.84Z"></path><path class="cls-1" d="m27.24,154.43l-19.47-4.84c-4.61-1.15-6.66-3.18-6.66-6.57,0-1.78,0-7.21,15.56-7.21,8.01,0,16.3,1.43,17.04,12.02v.19h.86v-13.02H6.93c-3.63,0-5.29.94-6.13,3.45-.5,1.5-.8,3.18-.8,4.47,0,4.6,3.02,6.39,7.57,7.67l19.47,4.85c4.73,1.17,6.66,3.11,6.66,6.67,0,2.65-2.02,7.11-15.56,7.11-8.01,0-16.31-1.43-17.04-12.02v-.19H.25v13.03h27.64c3.63,0,5.29-.94,6.13-3.45.5-1.51.8-3.18.8-4.47,0-4.11-2.19-6.34-7.57-7.67Z"></path><path class="cls-1" d="m64.38,150.04c-.83,1.36-2.63,2.11-5.07,2.11s-4.24-.75-5.07-2.11c-.77-1.27-.66-2.99.31-4.86l2.92-5.69c.5-1.06,1.05-1.51,1.84-1.51s1.37.51,1.84,1.51l2.92,5.69c.97,1.87,1.08,3.59.31,4.86h0Zm12.35,19.98h1.21l-17.54-34.26c7.93.13,12.47,1.16,16.65,3.77l.32.2v-4.74h-36.1v4.74l.32-.2c4.72-3,9.52-3.66,16.65-3.77l-17.54,34.26h1.21l4.65-9.06c3.44-6.62,7.24-7.95,12.27-7.95h.99c5.03,0,8.83,1.33,12.27,7.95l4.6,8.95.06.11Z"></path><path class="cls-1" d="m97.62,156.35l-12.89.19.14-9.53c0-9.47,4.94-11.07,16-11.07s16.15,3.59,16.15,10.67-4.9,9.73-19.41,9.73h0Zm19.43-16.21c-.79-3.52-1.57-4.25-4.88-4.56h0c-1.5-.14-6.75-.59-11.29-.59h-17.36v35.03h.96l.2-12.56h12.94c7.3,0,11.94-.2,13.86-.4,3.75-.44,4.71-.75,5.46-2.86.35-1,1-4.24,1-7.59,0-1.76-.29-3.89-.86-6.32l-.04-.16Z"></path><path class="cls-1" d="m124.39,135.86h.21c2.25-.05,4.25.11,6.01.25l.49.04c6.89.53,9.7.98,10.29,6.98.16,1.79.25,4.95.25,9.37s-.08,7.58-.25,9.38c-.58,6-3.4,6.45-10.29,6.98l-.48.04c-1.77.14-3.77.3-6.03.26h-.21s0,.86,0,.86h35.51v-.87h-.21c-2.3.05-4.31-.11-6.08-.25l-.47-.04c-6.88-.53-9.7-.98-10.29-6.98-.16-1.8-.25-4.95-.25-9.38s.08-7.58.25-9.37c.59-6,3.4-6.45,10.29-6.98l.49-.04c1.77-.14,3.77-.3,6.07-.26h.21s0-.86,0-.86h-35.51v.86Z"></path><path class="cls-1" d="m201.02,156.99h-.9v.19c-.12,1.53-.29,2.84-.41,3.69-.85,5.8-2.86,7.44-9.74,7.98l-.45.04c-1.73.14-3.69.3-5.91.26-2.93,0-5.74-.18-8.37-.54-5.79-.86-7.43-2.86-7.98-9.75-.14-1.61-.29-3.52-.29-5.61h3.3c2.92,0,5.74.18,8.37.54,5.79.86,7.43,2.86,7.98,9.74.02.37.05.75.09,1.15.04.5.08,1.02.11,1.57v.2h.86v-27.27h-.85v.2c-.04.55-.08,1.07-.12,1.57-.03.39-.06.77-.09,1.14-.55,6.89-2.19,8.89-7.98,9.75-2.63.36-5.45.54-8.37.54h-3.3c-.04-2.16.12-4.08.26-5.77l.04-.48c.55-6.89,2.19-8.89,7.98-9.75,2.64-.36,5.45-.54,8.38-.54,2.21-.04,4.16.12,5.89.26l.47.04c6.89.55,8.89,2.19,9.74,7.98.18,1.29.31,2.55.39,3.75v.19h.91v-13.07h-34.92v35.03h34.92v-13.03Z"></path><path class="cls-1" d="m241.53,135.19c-.07,2.7-.08,5.43-.1,8.07-.02,3.17-.04,6.45-.15,9.68-.04.97-.06,1.95-.09,2.93-.03,1.44-.07,2.93-.16,4.38-.12,1.72-.84,2.99-1.93,3.4-1.06.4-2.33-.04-3.5-1.21l-27.13-27.39-.06-.06h-.94v35.03h.95v-.2c.07-2.7.09-5.44.11-8.08.02-3.16.04-6.44.15-9.66.04-.98.06-1.96.09-2.94.03-1.44.07-2.92.16-4.37.11-1.72.85-3,1.95-3.41,1.06-.39,2.33.05,3.47,1.22l27.13,27.39.06.06h.94v-35.03h-.95v.2Z"></path><path class="cls-1" d="m276.48,154.43h0l-19.47-4.84c-4.61-1.15-6.66-3.18-6.66-6.57,0-1.78,0-7.21,15.56-7.21,8.01,0,16.31,1.43,17.04,12.02v.19h.86v-13.02h-27.64c-3.63,0-5.29.94-6.13,3.45-.5,1.51-.8,3.18-.8,4.47,0,4.6,3.03,6.39,7.57,7.67l19.47,4.85c4.73,1.17,6.66,3.11,6.66,6.67,0,2.65-2.02,7.11-15.56,7.11-5.41,0-9.17-.75-11.85-2.35-3.17-1.9-4.87-5.06-5.19-9.67v-.19h-.86v13.03h27.64c3.63,0,5.29-.94,6.13-3.45.5-1.51.8-3.18.8-4.47,0-4.11-2.19-6.34-7.57-7.67Z"></path></g></svg>